<svg
  width="96"
  height="84"
  viewBox="0 0 96 84"
  fill="none"
  xmlns="http://www.w3.org/2000/svg"
>
  <path
    d="M41.3119 28.3479C44.2665 29.7956 46.2696 31.332 48.7888 37.4777C51.3079 
    43.6234 50.6812 60.0119 53.7401 67.7739M41.3119 28.3479C37.5141 26.4872 
    33.3138 25.8408 26.8418 25.8408C20.3698 25.8408 10.5062 25.5386 6.40424 
    27.8465C0.799434 31 -0.202717 43 7.81453 43.5L15.8318 44M41.3119 
    28.3479C35.3052 25.8408 30.8474 31.8579 30.3491 35.8693C29.8508 39.8806 
    30.8474 43.5549 35.8305 43.8948M67.4819 76.6568C72.5574 73.0345 75.9197 
    69.6817 77.5474 68.2519C77.7277 68.0935 77.6148 67.7739 77.3754 
    67.7739H71.9621M67.4819 76.6568C62.1057 81.252 54.0414 82.1246 50.6812 
    81.9866H42.6022C40.2076 81.9866 35.7583 81.8681 32.1741 79.0256C27.694 
    75.4725 26.0765 70.1052 24.8455 63.4474C23.6146 56.7896 22.8382 53.7308 
    21.8447 50C20.9712 46.7197 19.8404 44.2405 15.8318 44M67.4819 
    76.6568C61.2427 80.2018 54.9625 72.8155 53.7401 67.7739M15.8318 44C25.0837 
    44.6422 28.9081 44.2901 35.8305 43.8948M56.8415 67.7739H53.7401M45.5445 
    10.8463L45.7191 2.30884C45.7217 2.18256 45.8193 2.07773 45.9451 
    2.06643C49.9929 1.70277 52.5524 2.83938 55.0387 5.28257M92.1185 
    15.8124L93.9642 7.15826C93.9857 7.05716 93.9437 6.95244 93.8532 
    6.90236C92.1205 5.94284 87.7477 6.11194 85.1034 7.78967M45.5445 
    23.6499C46.6635 20.2496 50.0054 12.6847 58.5095 10.4179C65.4548 8.56653 
    73.847 9.13122 78.8824 11.3981C83.9177 13.6649 89.1653 18.2743 88.6058 
    29.0419C88.0463 39.8094 78.4579 43.4367 73.4226 44.5701C68.3873 45.7036 
    58.8761 45.1369 56.0786 43.4367M54.3833 29.7956C53.8375 37.2989 60.2075 
    37.4891 63.6418 32.5594C63.7566 32.3946 64.0136 32.4177 64.0983 
    32.6C66.8833 38.5956 70.6883 36.8067 73.4241 32.7565M35.8305 
    43.8948C40.3153 44.2008 43.3052 38.3764 37.8238 36.3707M62.2273 
    70.4625C63.2114 66.3757 64.3027 62.7659 68.7178 56.4269C73.6487 49.3475 
    76.8601 51.6691 75.6698 53.8662C74.9155 55.2586 73.7796 56.0988 70.5717 
    60.012C68.0194 63.1254 65.3907 66.5081 62.6881 70.6605C62.534 70.8972 
    62.1611 70.7375 62.2273 70.4625Z"
    stroke="white"
    stroke-width="4"
    stroke-linecap="round"
  />
  <path
    d="M60.1357 23.1131C60.1357 24.4177 59.1328 25.4752 57.8956 25.4752C56.6584 
    25.4752 55.6555 24.4177 55.6555 23.1131C55.6555 21.8086 56.6584 20.7511 
    57.8956 20.7511C59.1328 20.7511 60.1357 21.8086 60.1357 23.1131Z"
    fill="white"
  />
  <path
    d="M73.5762 24.2942C73.5762 25.5987 72.5733 26.6562 71.3361 26.6562C70.099 
    26.6562 69.0961 25.5987 69.0961 24.2942C69.0961 22.9896 70.099 21.9321 
    71.3361 21.9321C72.5733 21.9321 73.5762 22.9896 73.5762 24.2942Z"
    fill="white"
  />
</svg>
